<?xml version="1.0" encoding="UTF-8" standalone="no"?>
<!-- Created with Inkscape (http://www.inkscape.org/) -->

<svg
   xmlns:dc="http://purl.org/dc/elements/1.1/"
   xmlns:cc="http://creativecommons.org/ns#"
   xmlns:rdf="http://www.w3.org/1999/02/22-rdf-syntax-ns#"
   xmlns:svg="http://www.w3.org/2000/svg"
   xmlns="http://www.w3.org/2000/svg"
   xmlns:sodipodi="http://sodipodi.sourceforge.net/DTD/sodipodi-0.dtd"
   xmlns:inkscape="http://www.inkscape.org/namespaces/inkscape"
   width="37.763287mm"
   height="37.763287mm"
   viewBox="0 0 37.763287 37.763287"
   version="1.1"
   id="svg4638"
   inkscape:version="0.92.3 (2405546, 2018-03-11)"
   sodipodi:docname="sc.svg">
  <title
     id="title5744">SoundCloud</title>
  <defs
     id="defs4632">
    <linearGradient
       id="linearGradient-1"
       y2="35.419586"
       x2="329.89059"
       y1="-4.9861314e-006"
       x1="329.89059"
       gradientTransform="scale(0.31984193,3.1265444)"
       gradientUnits="userSpaceOnUse">
      <stop
         id="stop5183"
         offset="0%"
         stop-color="#F6871F" />
      <stop
         id="stop5185"
         offset="23.93%"
         stop-color="#F57E20" />
      <stop
         id="stop5187"
         offset="62.62%"
         stop-color="#F36621" />
      <stop
         id="stop5189"
         offset="100%"
         stop-color="#F04923" />
    </linearGradient>
    <linearGradient
       id="linearGradient-2"
       y2="34.861252"
       x2="301.29535"
       y1="-8.7349581e-006"
       x1="301.29535"
       gradientTransform="scale(0.31480009,3.1766192)"
       gradientUnits="userSpaceOnUse">
      <stop
         id="stop5192"
         offset="0%"
         stop-color="#F6871F" />
      <stop
         id="stop5194"
         offset="23.93%"
         stop-color="#F57E20" />
      <stop
         id="stop5196"
         offset="62.62%"
         stop-color="#F36621" />
      <stop
         id="stop5198"
         offset="100%"
         stop-color="#F04923" />
    </linearGradient>
    <linearGradient
       id="linearGradient-3"
       y2="-20.3204"
       x2="-0.0080000004"
       y1="-107.80891"
       x1="-0.0080000004"
       gradientUnits="userSpaceOnUse">
      <stop
         id="stop5201"
         offset="0%"
         stop-color="#F6871F" />
      <stop
         id="stop5203"
         offset="23.93%"
         stop-color="#F57E20" />
      <stop
         id="stop5205"
         offset="62.62%"
         stop-color="#F36621" />
      <stop
         id="stop5207"
         offset="100%"
         stop-color="#F04923" />
    </linearGradient>
    <linearGradient
       id="linearGradient-4"
       y2="34.436829"
       x2="237.20953"
       y1="-1.3928522e-005"
       x1="237.20953"
       gradientTransform="scale(0.31096752,3.2157699)"
       gradientUnits="userSpaceOnUse">
      <stop
         id="stop5210"
         offset="0%"
         stop-color="#F6871F" />
      <stop
         id="stop5212"
         offset="23.93%"
         stop-color="#F57E20" />
      <stop
         id="stop5214"
         offset="62.62%"
         stop-color="#F36621" />
      <stop
         id="stop5216"
         offset="100%"
         stop-color="#F04923" />
    </linearGradient>
    <linearGradient
       id="linearGradient-5"
       y2="34.213547"
       x2="272.74835"
       y1="-8.0358996e-006"
       x1="272.74835"
       gradientTransform="scale(0.30894903,3.2367798)"
       gradientUnits="userSpaceOnUse">
      <stop
         id="stop5219"
         offset="0%"
         stop-color="#F6871F" />
      <stop
         id="stop5221"
         offset="23.93%"
         stop-color="#F57E20" />
      <stop
         id="stop5223"
         offset="62.62%"
         stop-color="#F36621" />
      <stop
         id="stop5225"
         offset="100%"
         stop-color="#F04923" />
    </linearGradient>
    <linearGradient
       id="linearGradient-6"
       y2="40.835239"
       x2="88.368019"
       y1="-2.1929985e-005"
       x1="88.368019"
       gradientTransform="scale(0.36874441,2.7119055)"
       gradientUnits="userSpaceOnUse">
      <stop
         id="stop5228"
         offset="0%"
         stop-color="#F6871F" />
      <stop
         id="stop5230"
         offset="23.93%"
         stop-color="#F57E20" />
      <stop
         id="stop5232"
         offset="62.62%"
         stop-color="#F36621" />
      <stop
         id="stop5234"
         offset="100%"
         stop-color="#F04923" />
    </linearGradient>
    <linearGradient
       id="linearGradient-7"
       y2="34.017548"
       x2="378.47534"
       y1="2.1939063e-006"
       x1="378.47534"
       gradientTransform="scale(0.30717922,3.2554285)"
       gradientUnits="userSpaceOnUse">
      <stop
         id="stop5237"
         offset="0%"
         stop-color="#F6871F" />
      <stop
         id="stop5239"
         offset="23.93%"
         stop-color="#F57E20" />
      <stop
         id="stop5241"
         offset="62.62%"
         stop-color="#F36621" />
      <stop
         id="stop5243"
         offset="100%"
         stop-color="#F04923" />
    </linearGradient>
    <linearGradient
       id="linearGradient-8"
       y2="41.336384"
       x2="114.54494"
       y1="3.7632431e-006"
       x1="114.54494"
       gradientTransform="scale(0.37326909,2.6790324)"
       gradientUnits="userSpaceOnUse">
      <stop
         id="stop5246"
         offset="0%"
         stop-color="#F6871F" />
      <stop
         id="stop5248"
         offset="23.93%"
         stop-color="#F57E20" />
      <stop
         id="stop5250"
         offset="62.62%"
         stop-color="#F36621" />
      <stop
         id="stop5252"
         offset="100%"
         stop-color="#F04923" />
    </linearGradient>
    <linearGradient
       id="linearGradient-9"
       y2="36.7878"
       x2="159.57512"
       y1="-1.1046505e-005"
       x1="159.57512"
       gradientTransform="scale(0.33219608,3.0102703)"
       gradientUnits="userSpaceOnUse">
      <stop
         id="stop5255"
         offset="0%"
         stop-color="#F6871F" />
      <stop
         id="stop5257"
         offset="23.93%"
         stop-color="#F57E20" />
      <stop
         id="stop5259"
         offset="62.62%"
         stop-color="#F36621" />
      <stop
         id="stop5261"
         offset="100%"
         stop-color="#F04923" />
    </linearGradient>
    <linearGradient
       id="linearGradient-10"
       y2="35.143768"
       x2="199.11124"
       y1="-1.9883473e-005"
       x1="199.11124"
       gradientTransform="scale(0.31735011,3.1510939)"
       gradientUnits="userSpaceOnUse">
      <stop
         id="stop5264"
         offset="0%"
         stop-color="#F6871F" />
      <stop
         id="stop5266"
         offset="23.93%"
         stop-color="#F57E20" />
      <stop
         id="stop5268"
         offset="62.62%"
         stop-color="#F36621" />
      <stop
         id="stop5270"
         offset="100%"
         stop-color="#F04923" />
    </linearGradient>
    <linearGradient
       id="linearGradient-11"
       y2="34.233147"
       x2="410.69623"
       y1="4.9556766e-006"
       x1="410.69623"
       gradientTransform="scale(0.30912743,3.2349119)"
       gradientUnits="userSpaceOnUse">
      <stop
         id="stop5273"
         offset="0%"
         stop-color="#F6871F" />
      <stop
         id="stop5275"
         offset="23.93%"
         stop-color="#F57E20" />
      <stop
         id="stop5277"
         offset="62.62%"
         stop-color="#F36621" />
      <stop
         id="stop5279"
         offset="100%"
         stop-color="#F04923" />
    </linearGradient>
    <linearGradient
       id="linearGradient-12"
       y2="49.770447"
       x2="6.8038616"
       y1="-6.7081078e-006"
       x1="6.8038616"
       gradientTransform="scale(0.44942937,2.2250437)"
       gradientUnits="userSpaceOnUse">
      <stop
         id="stop5282"
         offset="0%"
         stop-color="#F6871F" />
      <stop
         id="stop5284"
         offset="23.93%"
         stop-color="#F57E20" />
      <stop
         id="stop5286"
         offset="62.62%"
         stop-color="#F36621" />
      <stop
         id="stop5288"
         offset="100%"
         stop-color="#F04923" />
    </linearGradient>
    <linearGradient
       id="linearGradient-13"
       y2="44.29649"
       x2="31.218304"
       y1="-2.8517259e-005"
       x1="31.218304"
       gradientTransform="scale(0.40000001,2.4999999)"
       gradientUnits="userSpaceOnUse">
      <stop
         id="stop5291"
         offset="0%"
         stop-color="#F6871F" />
      <stop
         id="stop5293"
         offset="23.93%"
         stop-color="#F57E20" />
      <stop
         id="stop5295"
         offset="62.62%"
         stop-color="#F36621" />
      <stop
         id="stop5297"
         offset="100%"
         stop-color="#F04923" />
    </linearGradient>
    <linearGradient
       id="linearGradient-14"
       y2="40.99081"
       x2="60.771736"
       y1="-7.738312e-006"
       x1="60.771736"
       gradientTransform="scale(0.37014953,2.7016109)"
       gradientUnits="userSpaceOnUse">
      <stop
         id="stop5300"
         offset="0%"
         stop-color="#F6871F" />
      <stop
         id="stop5302"
         offset="23.93%"
         stop-color="#F57E20" />
      <stop
         id="stop5304"
         offset="62.62%"
         stop-color="#F36621" />
      <stop
         id="stop5306"
         offset="100%"
         stop-color="#F04923" />
    </linearGradient>
    <linearGradient
       id="linearGradient-15"
       y2="116.03213"
       x2="185.04546"
       y1="-1.7794547e-009"
       x1="185.04546"
       gradientTransform="scale(1.0492382,0.95307239)"
       gradientUnits="userSpaceOnUse">
      <stop
         id="stop5309"
         offset="0%"
         stop-color="#F7941E" />
      <stop
         id="stop5311"
         offset="0%"
         stop-color="#F68B1F" />
      <stop
         id="stop5313"
         offset="0%"
         stop-color="#F6871F" />
      <stop
         id="stop5315"
         offset="24.02%"
         stop-color="#F57E20" />
      <stop
         id="stop5317"
         offset="63.06%"
         stop-color="#F36621" />
      <stop
         id="stop5319"
         offset="100%"
         stop-color="#F04923" />
    </linearGradient>
    <linearGradient
       id="linearGradient-1-8"
       y2="214.72729"
       x2="107.28935"
       y1="1.8633864e-006"
       x1="107.28935"
       gradientTransform="scale(1.1925696,0.83852549)"
       gradientUnits="userSpaceOnUse">
      <stop
         id="stop5486"
         offset="0%"
         stop-color="#E52D27" />
      <stop
         id="stop5488"
         offset="100%"
         stop-color="#BF171D" />
    </linearGradient>
    <linearGradient
       id="linearGradient-1-5"
       y2="127.76156"
       x2="211.76385"
       y1="127.76156"
       x1="1.3210428"
       gradientTransform="scale(1.2033273,0.83102911)"
       gradientUnits="userSpaceOnUse">
      <stop
         id="stop5517"
         offset="0%"
         stop-opacity="0.1"
         stop-color="#000000" />
      <stop
         id="stop5519"
         offset="100%"
         stop-opacity="0.2"
         stop-color="#000000" />
    </linearGradient>
    <filter
       id="filter-1"
       filterUnits="objectBoundingBox"
       height="2"
       width="2"
       y="-0.5"
       x="-0.5">
      <feOffset
         id="feOffset5563"
         result="shadowOffsetOuter1"
         in="SourceAlpha"
         dy="2"
         dx="0" />
      <feGaussianBlur
         id="feGaussianBlur5565"
         result="shadowBlurOuter1"
         in="shadowOffsetOuter1"
         stdDeviation="1" />
      <feColorMatrix
         id="feColorMatrix5567"
         result="shadowMatrixOuter1"
         type="matrix"
         in="shadowBlurOuter1"
         values="0 0 0 0 0   0 0 0 0 0   0 0 0 0 0  0 0 0 0.168 0" />
      <feOffset
         id="feOffset5569"
         result="shadowOffsetOuter2"
         in="SourceAlpha"
         dy="0"
         dx="0" />
      <feGaussianBlur
         id="feGaussianBlur5571"
         result="shadowBlurOuter2"
         in="shadowOffsetOuter2"
         stdDeviation="1" />
      <feColorMatrix
         id="feColorMatrix5573"
         result="shadowMatrixOuter2"
         type="matrix"
         in="shadowBlurOuter2"
         values="0 0 0 0 0   0 0 0 0 0   0 0 0 0 0  0 0 0 0.084 0" />
      <feMerge
         id="feMerge5581">
        <feMergeNode
           id="feMergeNode5575"
           in="shadowMatrixOuter1" />
        <feMergeNode
           id="feMergeNode5577"
           in="shadowMatrixOuter2" />
        <feMergeNode
           id="feMergeNode5579"
           in="SourceGraphic" />
      </feMerge>
    </filter>
  </defs>
  <sodipodi:namedview
     id="base"
     pagecolor="#ffffff"
     bordercolor="#666666"
     borderopacity="1.0"
     inkscape:pageopacity="0.0"
     inkscape:pageshadow="2"
     inkscape:zoom="0.98994949"
     inkscape:cx="100.16205"
     inkscape:cy="-48.28505"
     inkscape:document-units="mm"
     inkscape:current-layer="layer1"
     showgrid="false"
     inkscape:window-width="1366"
     inkscape:window-height="705"
     inkscape:window-x="-8"
     inkscape:window-y="-8"
     inkscape:window-maximized="1" />
  <metadata
     id="metadata4635">
    <rdf:RDF>
      <cc:Work
         rdf:about="">
        <dc:format>image/svg+xml</dc:format>
        <dc:type
           rdf:resource="http://purl.org/dc/dcmitype/StillImage" />
        <dc:title>SoundCloud</dc:title>
      </cc:Work>
    </rdf:RDF>
  </metadata>
  <g
     inkscape:label="Calque 1"
     inkscape:groupmode="layer"
     id="layer1"
     transform="translate(186.54601,-40.537228)">
    <rect
       style="opacity:1;fill:#f25f21;fill-opacity:1;fill-rule:evenodd;stroke:#ffffff;stroke-width:1.06217825;stroke-linecap:round;stroke-linejoin:round;stroke-miterlimit:4;stroke-dasharray:none;stroke-dashoffset:0;stroke-opacity:1;paint-order:normal"
       id="rect5242-1-0-7-3-5-3-7-49-7-3"
       width="36.676533"
       height="36.676533"
       x="-178.28316"
       y="-96.181534"
       transform="rotate(-45.465541)"
       ry="18.338266"
       inkscape:export-filename="C:\Users\guill\Music\GaumKap Laboratory - TryoleGroup\GaumKap Lab 2018\logos vid new\try.png"
       inkscape:export-xdpi="90"
       inkscape:export-ydpi="90" />
    <g
       id="g5356"
       transform="matrix(0.1298225,0,0,0.1298225,-184.8883,49.532609)"
       style="fill:#ffffff">
      <path
         id="path5324"
         d="m 109.97043,81.481712 -1.49417,-54.48716 c 0,-1.693385 -1.39455,-2.988326 -2.98832,-2.988326 -1.69339,0 -2.98833,1.294941 -2.98833,2.988326 l -1.39455,54.48716 1.39455,26.197668 c 0,1.69338 1.39455,2.98832 2.98833,2.98832 1.69338,0 2.98832,-1.29494 2.98832,-2.98832 v 0 z"
         inkscape:connector-curvature="0"
         style="fill:#ffffff" />
      <path
         id="path5326"
         d="M 99.212451,81.481712 97.519066,24.902724 c 0,-1.593775 -1.294941,-2.789105 -2.789105,-2.789105 -1.494163,0 -2.789105,1.19533 -2.789105,2.789105 l -1.494163,56.479377 1.494163,26.396889 c 0,1.59377 1.294942,2.7891 2.789105,2.7891 1.494164,0 2.789105,-1.19533 2.789105,-2.7891 v 0 z"
         inkscape:connector-curvature="0"
         style="fill:#ffffff" />
      <circle
         id="circle5328"
         r="0"
         cy="107.43054"
         cx="119.38385"
         style="fill:#ffffff" />
      <path
         id="path5330"
         d="m 76.003113,25.301167 c -0.09961,-1.294941 -1.09572,-2.390661 -2.390662,-2.390661 -1.294941,0 -2.29105,0.996109 -2.390661,2.390661 l -1.693385,56.080934 1.693385,26.795329 c 0,1.29494 1.09572,2.29105 2.390661,2.29105 1.294942,0 2.291051,-0.99611 2.390662,-2.39066 l 1.992218,-26.79533 z"
         inkscape:connector-curvature="0"
         style="fill:#ffffff" />
      <path
         id="path5332"
         d="m 86.761089,23.40856 c 0,-1.394552 -1.19533,-2.589883 -2.589883,-2.589883 -1.394552,0 -2.589883,1.09572 -2.589883,2.589883 l -1.593774,57.973541 1.593774,26.596109 c 0,1.39455 1.195331,2.58988 2.589883,2.58988 1.394553,0 2.490273,-1.09572 2.589883,-2.58988 l 1.792997,-26.596109 z"
         inkscape:connector-curvature="0"
         style="fill:#ffffff" />
      <path
         id="path5334"
         d="m 32.473152,109.87082 c 0.796887,0 1.394552,-0.59767 1.494163,-1.49417 l 2.589883,-26.994549 -2.589883,-27.89105 c -0.09961,-0.796888 -0.697276,-1.494164 -1.494163,-1.494164 -0.796887,0 -1.394553,0.597665 -1.494164,1.494164 l -2.29105,27.89105 2.29105,26.994549 c 0,0.8965 0.697277,1.49417 1.494164,1.49417 z"
         inkscape:connector-curvature="0"
         style="fill:#ffffff" />
      <path
         id="path5336"
         d="M 120.82802,81.481712 119.43346,16.73463 c 0,-1.095719 -0.59766,-2.091828 -1.49416,-2.689494 -0.49806,-0.298832 -1.09572,-0.597665 -1.793,-0.597665 -0.59766,0 -1.19533,0.199222 -1.79299,0.498054 -0.8965,0.597666 -1.49417,1.593775 -1.49417,2.689494 v 0.597666 l -1.19533,64.149416 1.19533,25.998439 v 0.0996 c 0,0.69727 0.29884,1.39455 0.79689,1.8926 0.59767,0.69728 1.49416,1.19533 2.49027,1.19533 0.8965,0 1.69339,-0.39844 2.29105,-0.8965 0.59767,-0.59766 0.99611,-1.39455 0.99611,-2.29105 l 0.0996,-2.58988 1.29495,-23.308948 z"
         inkscape:connector-curvature="0"
         style="fill:#ffffff" />
      <path
         id="path5338"
         d="m 44.326848,55.483268 c -0.09961,-0.996109 -0.796887,-1.693385 -1.693385,-1.693385 -0.896498,0 -1.693385,0.697276 -1.693385,1.693385 l -2.091829,25.898833 2.091829,27.193769 c 0.09961,0.99611 0.796887,1.69339 1.693385,1.69339 0.896498,0 1.693385,-0.69728 1.693385,-1.69339 L 46.71751,81.382101 Z"
         inkscape:connector-curvature="0"
         style="fill:#ffffff" />
      <path
         id="path5340"
         d="m 52.893385,37.354086 c -0.996109,0 -1.892607,0.796887 -1.892607,1.892607 l -1.992218,42.135408 1.992218,27.193769 c 0.09961,1.09572 0.896498,1.89261 1.892607,1.89261 0.996109,0 1.892607,-0.79689 1.892607,-1.89261 v 0 L 57.077043,81.382101 54.785992,39.246693 c 0,-0.996109 -0.896498,-1.892607 -1.892607,-1.892607 z"
         inkscape:connector-curvature="0"
         style="fill:#ffffff" />
      <path
         id="path5342"
         d="m 65.245136,108.57587 v 0 L 67.336965,81.481712 65.245136,29.684047 c -0.09961,-1.195331 -0.996109,-2.091829 -2.19144,-2.091829 -1.19533,0 -2.091828,0.896498 -2.191439,2.091829 l -1.892607,51.797665 1.892607,27.094158 c 0,1.19534 0.996109,2.09183 2.191439,2.09183 1.195331,0.0996 2.091829,-0.89649 2.19144,-2.09183 z"
         inkscape:connector-curvature="0"
         style="fill:#ffffff" />
      <path
         id="path5344"
         d="m 128.69728,7.8692607 c -0.49806,-0.2988327 -1.09572,-0.4980545 -1.793,-0.4980545 -0.79689,0 -1.59377,0.2988327 -2.19144,0.7968872 -0.79689,0.5976654 -1.29494,1.5937743 -1.29494,2.6894936 v 0.398444 l -1.39455,70.325292 0.69727,12.949416 0.69728,12.650581 c 0,1.89261 1.59377,3.38677 3.48638,3.38677 1.89261,0 3.38677,-1.59377 3.48638,-3.48638 v 0 l 1.49416,-25.599998 -1.49416,-70.624125 c -0.0996,-1.2949411 -0.69728,-2.3906609 -1.69338,-2.9883263 z"
         inkscape:connector-curvature="0"
         style="fill:#ffffff" />
      <path
         id="path5346"
         d="m 2.888716,96.323735 c 0.4980544,0 0.896498,-0.398443 0.9961089,-0.996109 L 6.0762646,81.382101 3.8848249,67.237354 C 3.785214,66.639689 3.3867704,66.241245 2.888716,66.241245 c -0.4980545,0 -0.996109,0.398444 -0.996109,0.996109 L 0,81.382101 1.892607,95.327626 c 0,0.597666 0.4980545,0.996109 0.996109,0.996109 z"
         inkscape:connector-curvature="0"
         style="fill:#ffffff" />
      <path
         id="path5348"
         d="m 12.351751,104.79066 c 0.498054,0 0.996109,-0.39844 1.09572,-0.99611 L 16.336187,81.382101 13.447471,58.471595 c -0.09961,-0.597665 -0.498055,-0.996109 -1.09572,-0.996109 -0.498054,0 -0.996109,0.398444 -1.09572,0.996109 L 8.7657588,81.382101 11.256031,103.79455 c 0.09961,0.59767 0.498055,0.99611 1.09572,0.99611 z"
         inkscape:connector-curvature="0"
         style="fill:#ffffff" />
      <path
         id="path5350"
         d="m 22.31284,108.87471 c 0.697277,0 1.195331,-0.49806 1.294942,-1.29494 L 26.297276,81.382101 23.607782,54.188327 c -0.09961,-0.697276 -0.597665,-1.294942 -1.294942,-1.294942 -0.697276,0 -1.19533,0.498055 -1.294941,1.294942 l -2.390662,27.193774 2.390662,26.197669 c 0.09961,0.69727 0.597665,1.29494 1.294941,1.29494 z"
         inkscape:connector-curvature="0"
         style="fill:#ffffff" />
      <path
         id="path5352"
         d="m 223.62646,48.012451 c -4.28327,0 -8.36732,0.896498 -12.15253,2.390662 C 208.98366,22.21323 185.27626,0 156.3891,0 c -7.07237,0 -13.94552,1.3945525 -20.02179,3.785214 -2.39066,0.8964981 -2.98832,1.892607 -2.98832,3.6856031 V 106.9821 c 0,1.89261 1.49416,3.38677 3.38677,3.58599 h 86.96031 c 17.3323,0 31.37743,-13.845911 31.37743,-31.178207 -0.0996,-17.332296 -14.14475,-31.377432 -31.47704,-31.377432 z"
         inkscape:connector-curvature="0"
         style="fill:#ffffff" />
      <path
         id="path5354"
         d="m 25.002335,129.49416 c -3.685604,-0.8965 -4.681712,-1.29494 -4.681712,-2.7891 0,-0.99611 0.796887,-2.09183 3.287159,-2.09183 2.091829,0 3.785214,0.8965 5.279377,2.39066 l 3.386771,-3.28716 c -2.19144,-2.29105 -4.880934,-3.6856 -8.466926,-3.6856 -4.582101,0 -8.267704,2.58988 -8.267704,6.77354 0,4.5821 2.988326,5.97665 7.271595,6.87315 4.382879,0.99611 5.179767,1.69339 5.179767,3.18755 0,1.793 -1.294942,2.49027 -4.084047,2.49027 -2.19144,0 -4.283269,-0.79689 -5.976654,-2.68949 l -3.38677,2.98832 c 1.792996,2.58989 5.179766,4.18366 8.96498,4.18366 6.375097,0 9.064592,-2.98833 9.064592,-7.3712 0.199221,-4.88094 -3.884825,-6.17588 -7.570428,-6.97277 z m 21.416342,-9.36342 c -6.375097,0 -10.0607,4.88093 -10.0607,11.95331 0,7.07237 3.785214,11.9533 10.0607,11.9533 6.275486,0 10.0607,-4.88093 10.0607,-11.9533 0,-7.07238 -3.785214,-11.95331 -10.0607,-11.95331 z m 0,19.2249 c -3.785214,0 -5.279377,-3.18755 -5.279377,-7.3712 0,-4.18366 1.593774,-7.37121 5.279377,-7.37121 3.785214,0 5.279377,3.18755 5.279377,7.37121 0,4.18365 -1.593774,7.3712 -5.279377,7.3712 z m 28.787549,-5.87704 c 0,3.6856 -1.792996,5.97665 -4.781323,5.97665 -2.988327,0 -4.781323,-2.39066 -4.781323,-6.07626 v -12.94942 h -4.681712 v 13.04903 c 0,6.77354 3.785214,10.55875 9.363424,10.55875 5.877043,0 9.363424,-3.88482 9.363424,-10.55875 v -12.94942 h -4.681712 v 12.94942 z m 24.603891,-3.18755 c 0,1.29494 0.09961,4.18366 0.09961,5.08016 -0.298833,-0.59767 -1.09572,-1.793 -1.593775,-2.58989 l -8.267704,-12.25214 h -4.48249 v 23.20934 H 90.14786 V 133.4786 c 0,-1.29494 -0.09961,-4.18366 -0.09961,-5.08016 0.298833,0.59767 1.09572,1.793 1.593774,2.58989 l 8.466926,12.65058 h 4.18366 v -23.20934 h -4.582103 v 9.86148 z m 17.830353,-9.86148 h -7.2716 v 23.20934 h 6.87315 c 5.97666,0 11.8537,-3.48638 11.8537,-11.55486 0,-8.56654 -4.88093,-11.65448 -11.45525,-11.65448 z m -0.39845,18.72685 h -2.29105 v -14.14475 h 2.49027 c 4.88094,0 6.97277,2.39066 6.97277,7.07238 0,4.18365 -2.29105,7.07237 -7.17199,7.07237 z m 26.19767,-14.44358 c 2.09183,0 3.38677,0.8965 4.28327,2.49027 l 4.28327,-1.99222 c -1.49417,-2.98832 -4.08405,-5.17976 -8.46693,-5.17976 -6.07627,0 -10.25992,4.88093 -10.25992,11.95331 0,7.27159 4.08404,11.9533 10.16031,11.9533 4.18366,0 6.97276,-1.99222 8.56654,-5.27937 l -3.88483,-2.29106 c -1.19533,2.09183 -2.49027,2.98833 -4.5821,2.98833 -3.48638,0 -5.4786,-3.18755 -5.4786,-7.3712 0,-4.28327 1.99222,-7.2716 5.37899,-7.2716 z m 17.23268,-4.28327 h -4.68171 v 23.20934 h 13.94553 v -4.5821 h -9.26382 z m 21.51596,-0.29883 c -6.3751,0 -10.0607,4.88093 -10.0607,11.95331 0,7.07237 3.78521,11.9533 10.0607,11.9533 6.37509,0 10.0607,-4.88093 10.0607,-11.9533 0,-7.07238 -3.68561,-11.95331 -10.0607,-11.95331 z m 0,19.2249 c -3.78522,0 -5.27938,-3.18755 -5.27938,-7.3712 0,-4.18366 1.59377,-7.37121 5.27938,-7.37121 3.78521,0 5.27937,3.18755 5.27937,7.37121 0,4.18365 -1.49416,7.3712 -5.27937,7.3712 z m 28.78754,-5.87704 c 0,3.6856 -1.79299,5.97665 -4.78132,5.97665 -2.98832,0 -4.78132,-2.39066 -4.78132,-6.07626 v -12.94942 h -4.68171 v 13.04903 c 0,6.77354 3.78521,10.55875 9.36342,10.55875 5.87704,0 9.36343,-3.88482 9.36343,-10.55875 v -12.94942 h -4.68172 v 12.94942 z m 17.73074,-13.04903 h -7.27159 v 23.20934 h 6.87315 c 5.97665,0 11.8537,-3.48638 11.8537,-11.55486 0,-8.56654 -4.88094,-11.65448 -11.45526,-11.65448 z m -0.39844,18.72685 h -2.19144 v -14.14475 h 2.49027 c 4.88094,0 6.87316,2.39066 6.87316,7.07238 0,4.18365 -2.29106,7.07237 -7.17199,7.07237 z"
         inkscape:connector-curvature="0"
         style="fill:#ffffff" />
    </g>
  </g>
</svg>
